<svg width="96" height="96" viewBox="0 0 96 96" fill="none" xmlns="http://www.w3.org/2000/svg">
<path d="M45.2636 3.9375L42.4099 10.4531C40.9327 10.5431 39.4629 10.7292 38.0098 11.01L33.6444 5.373L28.9393 6.97275L28.9159 14.1446C26.9228 15.1691 25.0127 16.4078 23.2084 17.8534L16.5587 14.8594L13.1542 18.4806L16.5585 24.9375C15.4724 26.4858 14.518 28.1224 13.7051 29.8301L6.40425 30.0293L4.92188 34.7693L10.8165 39.1114C10.5343 40.8701 10.3965 42.6473 10.3886 44.4259L3.84375 47.7422L4.52925 52.6641L11.7129 54.0703C12.1426 55.5738 12.6751 57.0461 13.3067 58.4766L8.5725 64.3538L11.2149 68.5605L18.5743 66.8379C19.04 67.3859 19.5226 67.9193 20.0214 68.4373C21.0632 69.5151 22.1729 70.525 23.3439 71.4608L21.9142 78.8319L26.2151 81.3163L31.8341 76.4237C33.442 77.0699 35.0973 77.591 36.7854 77.9822L38.6196 85.1833L43.5705 85.5878L46.5471 78.7965C48.6039 78.6728 50.6541 78.3653 52.6701 77.8706L57.3988 83.3494L62.01 81.5036L61.875 78.7262L51.1114 70.5643C47.9779 71.3565 44.7285 71.5686 41.5371 71.2086C35.5832 70.5373 29.8614 67.8486 25.3712 63.2049C15.1078 52.5898 15.4013 35.7043 26.0158 25.4413C31.1571 20.4701 37.7702 17.9483 44.3908 17.8768C51.4389 17.8007 58.4934 20.5011 63.7854 25.9744C72.3982 34.8829 73.5722 48.2841 67.4533 58.4297L73.4477 62.9766C74.1931 61.8079 74.8663 60.5947 75.4633 59.3438L82.7111 59.1444L84.1935 54.4044L78.3403 50.0919C78.6229 48.3188 78.7658 46.5261 78.7678 44.7306L85.2718 41.4259L84.5865 36.504L77.409 35.0978C76.805 33.0187 76.0045 31.0017 75.0184 29.0743L79.2952 23.1504L76.4359 19.0898L69.3934 21.1346C69.3049 21.0409 69.219 20.9458 69.1294 20.8534C68.0208 19.7065 66.8344 18.6375 65.5787 17.6539L66.9264 10.6929L62.625 8.20875L57.2812 12.8614C55.5514 12.1652 53.7746 11.6233 51.9726 11.2208L50.2207 4.34175L45.2636 3.9375ZM34.3594 32.7188C32.4199 32.7409 30.4974 33.2171 28.7344 34.0838L37.2131 40.5176C39.7774 42.4631 40.5047 46.1604 38.5369 48.7558C36.5685 51.3527 32.7889 51.7431 30.1875 49.7698L21.7147 43.3419C20.8472 47.9906 22.4901 52.9163 26.5136 55.9689C30.1221 58.7059 34.7531 59.2183 38.7424 57.7854L39.6386 57.4629L40.3942 58.0373L65.7424 77.268L66.498 77.8421L66.4335 78.7914C66.1266 83.0196 67.8566 87.3433 71.4668 90.0821C75.4905 93.1346 80.6814 93.3878 84.9255 91.3009L76.4531 84.8734C73.8518 82.8998 73.2128 79.1535 75.1819 76.5589C77.1506 73.9639 80.9076 73.6704 83.4726 75.6154L91.9453 82.0434C92.8108 77.3964 91.1747 72.4684 87.1523 69.4164C83.5311 66.6681 78.9366 66.1236 74.9707 67.5353L74.0801 67.8518L73.3245 67.2774L47.9764 48.0471L47.2207 47.4728L47.2853 46.5296C47.5759 42.3321 45.8134 38.0558 42.1933 35.3087C39.8413 33.5244 37.0892 32.6878 34.3596 32.7189L34.3594 32.7188ZM42.5274 49.6406L73.254 72.9551L71.1386 75.75L40.4062 52.4297L42.5274 49.6406Z" fill="#FB8500"/>
</svg>
