<svg width="96" height="96" viewBox="0 0 96 96" fill="none" xmlns="http://www.w3.org/2000/svg">
<path d="M11.1925 86.268C9.32282 86.268 7.84682 85.6668 6.76454 84.4646C5.76682 83.3537 5.22968 81.8966 5.15311 80.0931L5.14282 79.6354V15.2057C5.14282 13.1646 5.68339 11.5491 6.76454 10.3594C7.76225 9.25998 9.09654 8.66798 10.7674 8.58341L11.1943 8.57141H57.1491C58.9948 8.57141 60.4588 9.16684 61.5411 10.3577C62.5388 11.4548 63.076 12.916 63.1525 14.7411L63.1611 15.204V26.5011H84.8468C86.5497 26.5011 87.9274 27.0137 88.98 28.0388L89.2371 28.3063C90.236 29.4148 90.7731 30.8714 90.8485 32.676L90.8588 33.1337V79.6354C90.8588 81.6514 90.3183 83.2611 89.2371 84.4646C88.2394 85.5731 86.9154 86.1708 85.2651 86.2577L84.8451 86.268H11.1925ZM63.1594 79.6354C63.1594 79.8983 63.1503 80.1537 63.132 80.4017H82.9114C83.6165 80.4017 84.1394 80.2314 84.48 79.8908C84.7714 79.5983 84.9377 79.164 84.9788 78.588L84.9908 78.288V34.4828C84.9908 33.7537 84.8205 33.2188 84.48 32.8783C84.1885 32.5868 83.7628 32.4206 83.2028 32.3794L82.9114 32.3691L63.1594 32.3674V79.6354ZM55.2171 14.4394H13.1245C12.3954 14.4394 11.8605 14.6091 11.52 14.9486C11.2285 15.2411 11.0623 15.6754 11.0211 16.2514L11.0108 16.5531V78.288C11.0108 79.016 11.1805 79.5503 11.52 79.8908C11.8125 80.1823 12.2468 80.3486 12.8228 80.3897L13.1245 80.4017L21.468 80.4V69.6514C21.468 68.2148 21.7651 67.1251 22.3594 66.3823L22.5445 66.1697C23.196 65.4954 24.164 65.128 25.4485 65.0674L25.8428 65.0588H42.4611C43.9663 65.0588 45.0714 65.4291 45.7765 66.1697C46.4177 66.844 46.7674 67.864 46.8257 69.2297L46.8343 69.6497L46.8325 80.4H55.2154C55.9205 80.4 56.4428 80.2303 56.7823 79.8908C57.0737 79.5983 57.2405 79.164 57.2828 78.588L57.2931 78.288V16.5531C57.2931 15.824 57.1228 15.2891 56.7823 14.9486C56.4428 14.6091 55.9223 14.4394 55.2171 14.4394ZM40.8943 69.8331H27.4097C26.7034 69.8331 26.3177 70.1543 26.2525 70.7966L26.244 70.9988L26.2423 80.4H42.0583V70.9988C42.0583 70.2926 41.7377 69.9068 41.0965 69.8417L40.8943 69.8331ZM77.0091 66.2246C77.7657 66.2246 78.1754 66.5714 78.2383 67.2651L78.2468 67.464V73.1486C78.2468 73.9063 77.9 74.3166 77.2063 74.3794L77.0091 74.388H71.1411C70.4074 74.388 70.0091 74.0411 69.9463 73.3474L69.9394 73.1486V67.464C69.9394 66.7063 70.2765 66.296 70.9508 66.2331L71.1411 66.2246H77.0091ZM77.0091 52.3046C77.7657 52.3046 78.1754 52.6514 78.2383 53.3451L78.2468 53.5423V59.2268C78.2468 59.9846 77.9 60.3948 77.2063 60.4577L77.0091 60.4663H71.1411C70.4074 60.4663 70.0091 60.1194 69.9463 59.4257L69.9394 59.2268V53.5423C69.9394 52.7846 70.2765 52.3743 70.9508 52.3114L71.1411 52.3028L77.0091 52.3046ZM29.1583 49.3508C30.0794 49.3508 30.5748 49.7754 30.6445 50.6246L30.6531 50.8457V57.7337C30.6531 58.6526 30.2285 59.1474 29.3794 59.2183L29.1583 59.2268H22.0525C21.1783 59.2268 20.7074 58.8028 20.64 57.9548L20.6314 57.732V50.8457C20.6314 49.9268 21.0348 49.4314 21.8417 49.3594L22.0525 49.3508H29.1583ZM46.2154 49.3508C47.1343 49.3508 47.6291 49.7754 47.7 50.6246L47.7085 50.8457V57.7337C47.7085 58.6526 47.284 59.1474 46.4348 59.2183L46.2137 59.2268H39.144C38.2468 59.2268 37.764 58.8028 37.6954 57.9548L37.6868 57.732V50.8457C37.6868 49.9268 38.1005 49.4314 38.928 49.3594L39.144 49.3508H46.2154ZM77.0091 38.3811C77.7657 38.3811 78.1754 38.7286 78.2383 39.4234L78.2468 39.6206V45.3068C78.2468 46.0634 77.9 46.4731 77.2063 46.536L77.0091 46.5446H71.1411C70.4074 46.5446 70.0091 46.1977 69.9463 45.504L69.9394 45.3068V39.6206C69.9394 38.8651 70.2765 38.4548 70.9508 38.3897L71.1411 38.3811H77.0091ZM29.1583 34.9183C30.0794 34.9183 30.5748 35.3434 30.6445 36.1937L30.6531 36.4131V43.3011C30.6531 44.2223 30.2285 44.7177 29.3794 44.7874L29.1583 44.796H22.0525C21.1783 44.796 20.7074 44.3714 20.64 43.5223L20.6314 43.3011V36.4131C20.6314 35.4943 21.0348 34.9994 21.8417 34.9286L22.0525 34.92L29.1583 34.9183ZM46.2154 34.9183C47.1343 34.9183 47.6291 35.3434 47.7 36.1937L47.7085 36.4131V43.3011C47.7085 44.2223 47.284 44.7177 46.4348 44.7874L46.2137 44.796H39.144C38.2468 44.796 37.764 44.3714 37.6954 43.5223L37.6868 43.3011V36.4131C37.6868 35.4943 38.1005 34.9994 38.928 34.9286L39.144 34.92L46.2154 34.9183ZM29.1583 20.4891C30.0794 20.4891 30.5748 20.9131 30.6445 21.7611L30.6531 21.984V28.8703C30.6531 29.7891 30.2285 30.284 29.3794 30.3548L29.1583 30.3651H22.0525C21.1783 30.3651 20.7074 29.9406 20.64 29.0914L20.6314 28.8703V21.9823C20.6314 21.0634 21.0348 20.5686 21.8417 20.4977L22.0525 20.4891H29.1583ZM46.2154 20.4891C47.1343 20.4891 47.6291 20.9131 47.7 21.7611L47.7085 21.984V28.8703C47.7085 29.7891 47.284 30.284 46.4348 30.3548L46.2137 30.3651H39.144C38.2468 30.3651 37.764 29.9406 37.6954 29.0914L37.6868 28.8703V21.9823C37.6868 21.0634 38.1005 20.5686 38.928 20.4977L39.144 20.4891H46.2154Z" fill="#FB8500"/>
</svg>
