<svg width="96" height="96" viewBox="0 0 96 96" fill="none" xmlns="http://www.w3.org/2000/svg">
<path d="M69 11.984C70.4445 11.984 71.8749 12.2685 73.2095 12.8213C74.5441 13.3741 75.7567 14.1844 76.7782 15.2058C77.7996 16.2273 78.6099 17.4399 79.1627 18.7745C79.7155 20.1091 80 21.5395 80 22.984V45.992C78.0749 45.1908 76.0605 44.624 74 44.304V22.984C74 20.224 71.76 17.984 69 17.984H19C16.24 17.984 14 20.224 14 22.984V72.984C14 75.744 16.24 77.984 19 77.984H45.248C45.936 80.12 46.892 82.132 48.076 83.984H19C17.5555 83.984 16.1251 83.6995 14.7905 83.1467C13.4559 82.5939 12.2433 81.7836 11.2218 80.7622C10.2004 79.7407 9.39013 78.5281 8.83733 77.1935C8.28452 75.8589 8 74.4286 8 72.984V22.984C8 20.0666 9.15893 17.2687 11.2218 15.2058C13.2847 13.1429 16.0826 11.984 19 11.984H69ZM64 30.92V44.7C61.9157 45.194 59.9004 45.9437 58 46.932V30.92C58.0052 30.5313 58.087 30.1474 58.2406 29.7903C58.3941 29.4331 58.6166 29.1098 58.8952 28.8386C59.1738 28.5675 59.503 28.3538 59.8642 28.2099C60.2253 28.0661 60.6113 27.9947 61 28C62.52 28 63.776 29.1 63.972 30.52L64 30.92ZM46.86 50.864L46.928 58.004C45.3157 61.1064 44.3457 64.5021 44.076 67.988C43.3748 67.9922 42.6956 67.7439 42.1624 67.2885C41.6292 66.8332 41.2776 66.2012 41.172 65.508L41.14 65.112L41 50.924C40.9957 50.1503 41.2988 49.4065 41.8425 48.856C42.3862 48.3055 43.1263 47.9933 43.9 47.988C44.6053 47.978 45.2903 48.2237 45.8285 48.6796C46.3668 49.1354 46.7218 49.7707 46.828 50.468L46.86 50.864ZM27 36C28.52 36 29.772 37.124 29.972 38.584L30 38.988V65.016C29.9958 65.8089 29.6778 66.5678 29.1157 67.127C28.5535 67.6861 27.7929 68 27 68C26.2768 68.0004 25.5779 67.7395 25.0318 67.2655C24.4857 66.7914 24.1292 66.136 24.028 65.42L24 65.012V38.984C24 37.336 25.344 36 27 36ZM57.112 55.908C57.4105 56.9422 57.4972 58.0259 57.3669 59.0944C57.2367 60.1629 56.8922 61.1941 56.354 62.1262C55.8158 63.0584 55.0951 63.8724 54.2349 64.5195C53.3747 65.1665 52.3928 65.6334 51.348 65.892L49.012 66.468C48.6352 68.8646 48.6433 71.306 49.036 73.7L51.196 74.22C52.2503 74.474 53.242 74.9396 54.1108 75.5887C54.9796 76.2378 55.7073 77.0567 56.2498 77.9958C56.7922 78.9348 57.1381 79.9744 57.2664 81.0512C57.3947 82.1281 57.3027 83.2198 56.996 84.26L56.248 86.784C58.008 88.328 60.008 89.58 62.184 90.472L64.16 88.396C64.9073 87.6099 65.8067 86.984 66.8034 86.5563C67.8001 86.1287 68.8734 85.9081 69.958 85.9081C71.0426 85.9081 72.1159 86.1287 73.1126 86.5563C74.1093 86.984 75.0087 87.6099 75.756 88.396L77.748 90.496C79.9132 89.6141 81.9176 88.3801 83.68 86.844L82.888 84.1C82.5895 83.0658 82.5028 81.9821 82.6331 80.9136C82.7633 79.8451 83.1078 78.8139 83.646 77.8818C84.1842 76.9496 84.9049 76.1356 85.7651 75.4885C86.6253 74.8415 87.6072 74.3746 88.652 74.116L90.988 73.54C91.3648 71.1434 91.3567 68.702 90.964 66.308L88.804 65.788C87.7497 65.534 86.758 65.0684 85.8892 64.4193C85.0204 63.7702 84.2927 62.9513 83.7502 62.0122C83.2078 61.0732 82.8619 60.0336 82.7336 58.9568C82.6053 57.8799 82.6973 56.7882 83.004 55.748L83.752 53.228C81.991 51.6788 79.9851 50.4325 77.816 49.54L75.844 51.612C75.0966 52.3987 74.197 53.0251 73.2 53.4532C72.2029 53.8813 71.1291 54.102 70.044 54.102C68.9589 54.102 67.8851 53.8813 66.888 53.4532C65.8909 53.0251 64.9914 52.3987 64.244 51.612L62.252 49.512C60.0871 50.3927 58.0827 51.6253 56.32 53.16L57.112 55.908ZM70 76C66.8 76 64.2 73.312 64.2 70C64.2 66.688 66.8 64 70 64C73.2 64 75.8 66.688 75.8 70C75.8 73.312 73.2 76 70 76Z" fill="white"/>
</svg>
