<svg width="97" height="97" viewBox="0 0 97 97" fill="none" xmlns="http://www.w3.org/2000/svg">
<path d="M40.125 66.5L52.125 70.5C52.125 70.5 82.125 64.5 86.125 64.5C90.125 64.5 90.125 68.5 86.125 72.5C82.125 76.5 68.125 88.5 56.125 88.5C44.125 88.5 36.125 82.5 28.125 82.5H8.125" stroke="white" stroke-width="6" stroke-linecap="round" stroke-linejoin="round"/>
<path d="M8.125 58.5C12.125 54.5 20.125 48.5 28.125 48.5C36.125 48.5 55.125 56.5 58.125 60.5C61.125 64.5 52.125 70.5 52.125 70.5M32.125 36.5V20.5C32.125 19.4391 32.5464 18.4217 33.2966 17.6716C34.0467 16.9214 35.0641 16.5 36.125 16.5H84.125C85.1859 16.5 86.2033 16.9214 86.9534 17.6716C87.7036 18.4217 88.125 19.4391 88.125 20.5V52.5" stroke="white" stroke-width="6" stroke-linecap="round" stroke-linejoin="round"/>
<path d="M50.125 16.5H70.125V34.5H50.125V16.5Z" stroke="white" stroke-width="6" stroke-linecap="round" stroke-linejoin="round"/>
</svg>
