<svg width="96" height="96" viewBox="0 0 96 96" fill="none" xmlns="http://www.w3.org/2000/svg">
<g clip-path="url(#clip0_1840_10919)">
<path fill-rule="evenodd" clip-rule="evenodd" d="M10.2857 48.2263C10.2875 41.0245 12.3512 33.9738 16.233 27.9077C20.1148 21.8416 25.6522 17.0138 32.1907 13.9949C38.7292 10.976 45.9954 9.89234 53.1302 10.872C60.2651 11.8517 66.9703 14.8537 72.4531 19.5232C77.936 24.1927 81.9672 30.3344 84.0703 37.2222C86.1734 44.1101 86.2604 51.4561 84.321 58.3919C82.3816 65.3276 78.497 71.5631 73.1262 76.3611C67.7555 81.1591 61.1233 84.3191 54.0137 85.4675C53.9406 85.477 53.8665 85.4747 53.7942 85.4606C53.7071 85.4268 53.6277 85.3754 53.5611 85.3098C53.4233 85.1658 53.3153 84.9959 53.2435 84.8099C53.1717 84.6239 53.1375 84.4256 53.1428 84.2263V74.2698C58.7237 73.088 63.7293 70.0251 67.3218 65.5937C70.9143 61.1624 72.8757 55.6315 72.8777 49.9269V39.2915C72.8777 37.9275 72.3358 36.6194 71.3714 35.6549C70.4069 34.6904 69.0988 34.1486 67.7348 34.1486H63.8537V25.8515C63.8537 24.4875 63.3118 23.1794 62.3474 22.2149C61.3829 21.2504 60.0748 20.7086 58.7108 20.7086C57.3468 20.7086 56.0387 21.2504 55.0743 22.2149C54.1098 23.1794 53.568 24.4875 53.568 25.8515V34.1486H42.432V25.8515C42.432 24.4875 41.8901 23.1794 40.9256 22.2149C39.9612 21.2504 38.6531 20.7086 37.2891 20.7086C35.9251 20.7086 34.617 21.2504 33.6525 22.2149C32.6881 23.1794 32.1462 24.4875 32.1462 25.8515V34.1486H28.2788C26.9148 34.1486 25.6067 34.6904 24.6423 35.6549C23.6778 36.6194 23.136 37.9275 23.136 39.2915V49.92C23.1376 55.6237 25.098 61.1538 28.6891 65.585C32.2803 70.0163 37.2843 73.0797 42.864 74.2629V84.2263C42.864 90.5829 48.2262 96.8023 55.6525 95.616C67.5369 93.6599 78.252 87.3086 85.6726 77.8219C93.0933 68.3352 96.6775 56.406 95.7144 44.4003C94.7512 32.3946 89.3111 21.1894 80.4729 13.007C71.6348 4.82465 60.0442 0.262831 48 0.226323C37.4295 0.221553 27.1531 3.70615 18.7657 10.1393C10.3782 16.5724 4.34889 25.5943 1.61342 35.8046C-1.12206 46.015 -0.410667 56.8428 3.63718 66.6075C7.68503 76.3721 14.8429 84.5276 24 89.808C24.5851 90.1511 25.2322 90.3749 25.9042 90.4668C26.5762 90.5587 27.2597 90.5168 27.9154 90.3434C28.5712 90.1701 29.1861 89.8687 29.7249 89.4567C30.2637 89.0447 30.7156 88.5302 31.0547 87.9429C31.3939 87.3555 31.6135 86.7069 31.7009 86.0343C31.7883 85.3617 31.7418 84.6785 31.5641 84.0239C31.3864 83.3694 31.081 82.7564 30.6654 82.2204C30.2499 81.6844 29.7324 81.2358 29.1428 80.9006C23.4076 77.5894 18.6455 72.8264 15.3352 67.0907C12.025 61.355 10.2834 54.8487 10.2857 48.2263Z" fill="#FB8500"/>
</g>
<defs>
<clipPath id="clip0_1840_10919">
<rect width="96" height="96" fill="white"/>
</clipPath>
</defs>
</svg>
