<svg width="97" height="96" viewBox="0 0 97 96" fill="none" xmlns="http://www.w3.org/2000/svg">
<path d="M36.5 60C25.82 60 4.5 65.36 4.5 76V84H68.5V76C68.5 65.36 47.18 60 36.5 60ZM12.5 76C13.38 73.12 25.74 68 36.5 68C47.3 68 59.7 73.16 60.5 76H12.5ZM19.46 36H20.5C20.5 44.84 27.66 52 36.5 52C45.34 52 52.5 44.84 52.5 36H53.54C54.62 36 55.5 35.12 55.5 34.04V33.96C55.5 33.4402 55.2935 32.9416 54.9259 32.5741C54.5584 32.2065 54.0598 32 53.54 32H52.5C52.5 26.08 49.26 21 44.5 18.2V22C44.5 23.12 43.62 24 42.5 24C41.38 24 40.5 23.12 40.5 22V16.56C39.22 16.24 37.9 16 36.5 16C35.1 16 33.78 16.24 32.5 16.56V22C32.5 23.12 31.62 24 30.5 24C29.38 24 28.5 23.12 28.5 22V18.2C23.74 21 20.5 26.08 20.5 32H19.46C19.2026 32 18.9477 32.0507 18.7099 32.1492C18.4721 32.2477 18.2561 32.3921 18.0741 32.5741C17.8921 32.7561 17.7477 32.9721 17.6492 33.2099C17.5507 33.4477 17.5 33.7026 17.5 33.96V34.08C17.5 35.12 18.38 36 19.46 36ZM44.5 36C44.5 40.4 40.9 44 36.5 44C32.1 44 28.5 40.4 28.5 36H44.5ZM88.42 24.92L92.14 21.6L89.14 16.4L84.38 17.96C83.82 17.52 83.18 17.16 82.5 16.88L81.5 12H75.5L74.5 16.88C73.82 17.16 73.18 17.52 72.58 17.96L67.86 16.4L64.86 21.6L68.58 24.92C68.5 25.6 68.5 26.32 68.58 27L64.86 30.4L67.86 35.6L72.66 34.08C73.18 34.48 73.78 34.8 74.38 35.08L75.5 40H81.5L82.58 35.12C83.22 34.84 83.78 34.52 84.34 34.12L89.1 35.64L92.1 30.44L88.38 27.04C88.5 26.28 88.46 25.6 88.42 24.92ZM78.5 31C77.1739 31 75.9021 30.4732 74.9645 29.5355C74.0268 28.5979 73.5 27.3261 73.5 26C73.5 24.6739 74.0268 23.4021 74.9645 22.4645C75.9021 21.5268 77.1739 21 78.5 21C79.8261 21 81.0979 21.5268 82.0355 22.4645C82.9732 23.4021 83.5 24.6739 83.5 26C83.5 27.3261 82.9732 28.5979 82.0355 29.5355C81.0979 30.4732 79.8261 31 78.5 31ZM78.1 43.16L74.7 44.28C74.3 43.96 73.86 43.72 73.38 43.52L72.66 40H68.38L67.66 43.48C67.18 43.68 66.7 43.96 66.3 44.24L62.94 43.12L60.78 46.84L63.42 49.2C63.38 49.72 63.38 50.2 63.42 50.68L60.78 53.12L62.94 56.84L66.38 55.76C66.78 56.04 67.18 56.28 67.62 56.48L68.34 60H72.62L73.38 56.52C73.82 56.32 74.26 56.08 74.66 55.8L78.06 56.88L80.22 53.16L77.58 50.72C77.62 50.2 77.62 49.72 77.58 49.24L80.22 46.88L78.1 43.16ZM70.5 53.56C68.54 53.56 66.94 51.96 66.94 50C66.94 48.04 68.54 46.44 70.5 46.44C72.46 46.44 74.06 48.04 74.06 50C74.06 51.96 72.46 53.56 70.5 53.56Z" fill="white"/>
<path d="M8.16406 80.768V74.184C8.16406 72.4453 8.62806 70.892 9.55606 69.524C10.4841 68.156 11.7934 67.048 13.4841 66.2C16.7294 64.5706 20.3321 63.2573 24.2921 62.26C28.2521 61.2653 32.2094 60.768 36.1641 60.768C40.1187 60.768 44.0747 61.2653 48.0321 62.26C51.9894 63.2547 55.5921 64.568 58.8401 66.2C60.5307 67.0453 61.8401 68.152 62.7681 69.52C63.6987 70.8906 64.1641 72.4453 64.1641 74.184V80.768H8.16406ZM12.1641 76.768H60.1641V74.184C60.1641 73.0906 59.8521 72.1933 59.2281 71.492C58.6041 70.7906 57.8387 70.196 56.9321 69.708C54.4281 68.4067 51.2934 67.2587 47.5281 66.264C43.7601 65.2667 39.9707 64.768 36.1601 64.768C32.3494 64.768 28.5614 65.2667 24.7961 66.264C21.0307 67.2613 17.8961 68.4093 15.3921 69.708C14.4854 70.196 13.7201 70.7906 13.0961 71.492C12.4721 72.196 12.1601 73.0933 12.1601 74.184L12.1641 76.768ZM36.1641 51.848C32.7374 51.848 29.8801 50.704 27.5921 48.416C25.3041 46.128 24.1614 43.1173 24.1641 39.384H23.3161C22.8681 39.384 22.5001 39.24 22.2121 38.952C21.9214 38.6587 21.7761 38.2907 21.7761 37.848C21.7761 37.4053 21.9214 37.0373 22.2121 36.744C22.5027 36.4507 22.8707 36.3053 23.3161 36.308H24.1601C24.2641 34.2813 24.6907 32.4413 25.4401 30.788C26.1867 29.1293 27.4014 27.5493 29.0841 26.048V29.848C29.0841 30.2933 29.2294 30.6613 29.5201 30.952C29.8107 31.24 30.1787 31.384 30.6241 31.384C31.0694 31.384 31.4374 31.24 31.7281 30.952C32.0187 30.664 32.1627 30.296 32.1601 29.848V24.6C32.7094 24.4 33.3307 24.224 34.0241 24.072C34.7174 23.9227 35.4307 23.848 36.1641 23.848C36.8974 23.848 37.6094 23.9227 38.3001 24.072C38.9907 24.2213 39.6121 24.3973 40.1641 24.6V29.848C40.1641 30.2933 40.3081 30.6613 40.5961 30.952C40.8867 31.24 41.2547 31.384 41.7001 31.384C42.1454 31.384 42.5134 31.24 42.8041 30.952C43.0947 30.664 43.2401 30.296 43.2401 29.848V26.048C44.9734 27.5493 46.2001 29.128 46.9201 30.784C47.6454 32.44 48.0587 34.2813 48.1601 36.308H49.0081C49.4534 36.308 49.8214 36.4533 50.1121 36.744C50.4001 37.032 50.5441 37.4 50.5441 37.848C50.5441 38.296 50.4001 38.664 50.1121 38.952C49.8241 39.24 49.4561 39.384 49.0081 39.384H48.1601C48.1601 43.1173 47.0174 46.128 44.7321 48.416C42.4441 50.704 39.5867 51.848 36.1601 51.848M36.1601 47.848C38.4641 47.848 40.3734 47.0893 41.8881 45.572C43.4027 44.0573 44.1601 42.148 44.1601 39.844H28.1601C28.1601 42.148 28.9187 44.0573 30.4361 45.572C31.9534 47.0867 33.8614 47.8453 36.1601 47.848ZM66.3161 59.384L66.0241 56.54C65.5201 56.4067 64.9947 56.192 64.4481 55.896C63.9014 55.6 63.4361 55.26 63.0521 54.876L60.4081 56.032L58.8681 53.352L61.2241 51.664C61.1201 51.36 61.0681 51.0827 61.0681 50.832V49.208C61.0681 48.9813 61.1201 48.692 61.2241 48.34L58.8681 46.648L60.4081 43.968L63.0521 45.124C63.4227 44.7533 63.8841 44.4173 64.4361 44.116C64.9907 43.8147 65.5201 43.5973 66.0241 43.464L66.3161 40.616H69.3921L69.6841 43.464C70.1881 43.5973 70.7161 43.8147 71.2681 44.116C71.8201 44.4173 72.2827 44.7533 72.6561 45.124L75.3001 43.968L76.8401 46.648L74.4841 48.336C74.5881 48.6907 74.6401 48.9813 74.6401 49.208V50.832C74.6401 51.0827 74.5881 51.3587 74.4841 51.66L76.8401 53.356L75.3001 56.032L72.6521 54.876C72.2681 55.26 71.8027 55.6 71.2561 55.896C70.7094 56.1893 70.1854 56.4026 69.6841 56.536L69.3921 59.384H66.3161ZM67.8521 53.616C68.8574 53.616 69.7107 53.2653 70.4121 52.564C71.1161 51.86 71.4681 51.0053 71.4681 50C71.4681 48.9947 71.1174 48.1413 70.4161 47.44C69.7147 46.7387 68.8614 46.3867 67.8561 46.384C66.8507 46.3813 65.9961 46.7333 65.2921 47.44C64.5881 48.1466 64.2361 49 64.2361 50C64.2361 51 64.5881 51.8533 65.2921 52.56C65.9961 53.2667 66.8494 53.6187 67.8521 53.616ZM75.9761 37.692L75.6361 34.572C74.8841 34.4226 74.0907 34.12 73.2561 33.664C72.4241 33.2107 71.7574 32.656 71.2561 32L68.2841 33.248L66.5641 30.292L69.1921 28.372C69.0587 27.9853 68.9654 27.5893 68.9121 27.184C68.8614 26.7787 68.8361 26.384 68.8361 26C68.8361 25.616 68.8627 25.2213 68.9161 24.816C68.9694 24.4107 69.0614 24.016 69.1921 23.632L66.5601 21.708L68.2841 18.756L71.2521 20C71.7561 19.344 72.4254 18.7893 73.2601 18.336C74.0921 17.8827 74.8854 17.5813 75.6401 17.432L75.9761 14.308H79.4241L79.7601 17.428C80.5147 17.58 81.3081 17.8827 82.1401 18.336C82.9747 18.7893 83.6427 19.344 84.1441 20L87.1161 18.752L88.8361 21.708L86.2081 23.628C86.3414 24.0147 86.4347 24.4107 86.4881 24.816C86.5361 25.2213 86.5601 25.616 86.5601 26C86.5601 26.384 86.5347 26.7787 86.4841 27.184C86.4334 27.5893 86.3414 27.984 86.2081 28.368L88.8401 30.292L87.1161 33.248L84.1481 32C83.6441 32.656 82.9761 33.2107 82.1441 33.664C81.3094 34.1173 80.5161 34.4187 79.7641 34.568L79.4241 37.692H75.9761ZM77.7001 31.464C79.2547 31.464 80.5534 30.9413 81.5961 29.896C82.6387 28.8533 83.1601 27.5547 83.1601 26C83.1601 24.4453 82.6387 23.1467 81.5961 22.104C80.5534 21.0613 79.2547 20.54 77.7001 20.54C76.1454 20.54 74.8467 21.0613 73.8041 22.104C72.7614 23.1467 72.2387 24.4453 72.2361 26C72.2334 27.5547 72.7561 28.8533 73.8041 29.896C74.8521 30.9387 76.1507 31.4613 77.7001 31.464Z" fill="white"/>
</svg>
