<svg width="97" height="97" viewBox="0 0 97 97" fill="none" xmlns="http://www.w3.org/2000/svg">
<path fill-rule="evenodd" clip-rule="evenodd" d="M42.491 15.54C37.095 17.508 32.863 22.11 31.173 27.888C28.171 29.428 26.375 31.38 26.375 33.5C26.375 35.896 28.663 38.074 32.395 39.686C32.3817 39.9553 32.375 40.2267 32.375 40.5C32.3769 42.6342 32.8058 44.7465 33.6364 46.7124C34.4669 48.6784 35.6824 50.4583 37.2113 51.9474C38.7402 53.4365 40.5515 54.6047 42.5386 55.3832C44.5258 56.1617 46.6486 56.5347 48.7821 56.4804C50.9156 56.4261 53.0167 55.9455 54.9617 55.067C56.9067 54.1884 58.6562 52.9296 60.1073 51.3646C61.5585 49.7996 62.6818 47.9602 63.4113 45.9545C64.1408 43.9489 64.4617 41.8175 64.355 39.686C68.087 38.074 70.375 35.896 70.375 33.5C70.375 31.378 68.579 29.428 65.575 27.888C63.887 22.108 59.655 17.508 54.259 15.538C54.0441 14.6705 53.5448 13.9 52.8408 13.3493C52.1368 12.7987 51.2687 12.4997 50.375 12.5H46.375C45.481 12.4998 44.6127 12.7991 43.9087 13.3501C43.2047 13.9011 42.7056 14.6721 42.491 15.54ZM44.375 24.5C44.9054 24.5 45.4141 24.2893 45.7892 23.9142C46.1643 23.5391 46.375 23.0304 46.375 22.5V16.5H50.375V22.5C50.375 23.0304 50.5857 23.5391 50.9608 23.9142C51.3359 24.2893 51.8446 24.5 52.375 24.5C52.9054 24.5 53.4141 24.2893 53.7892 23.9142C54.1643 23.5391 54.375 23.0304 54.375 22.5V19.944C57.549 21.564 60.111 24.45 61.425 28.056L61.409 28.126C61.3093 28.2044 61.2044 28.2759 61.095 28.34C60.523 28.68 59.579 29.052 58.271 29.392C55.685 30.066 52.109 30.5 48.375 30.5C44.641 30.5 41.065 30.066 38.479 29.392C37.171 29.052 36.227 28.68 35.655 28.34C35.5456 28.2759 35.4407 28.2044 35.341 28.126L35.337 28.108L35.325 28.056C36.639 24.45 39.201 21.562 42.375 19.944V22.5C42.375 23.0304 42.5857 23.5391 42.9608 23.9142C43.3359 24.2893 43.8446 24.5 44.375 24.5ZM33.063 31.416L32.997 31.448C31.783 32.07 31.049 32.662 30.663 33.104C30.5515 33.2213 30.4584 33.3548 30.387 33.5C30.429 33.596 30.551 33.804 30.885 34.128C31.511 34.734 32.627 35.464 34.333 36.162C37.725 37.55 42.689 38.5 48.375 38.5C54.061 38.5 59.025 37.55 62.415 36.16C64.123 35.464 65.239 34.734 65.865 34.128C66.199 33.804 66.321 33.596 66.363 33.5C66.2916 33.3548 66.1985 33.2213 66.087 33.104C65.701 32.662 64.967 32.07 63.753 31.448L63.687 31.416C63.5123 31.5458 63.3307 31.666 63.143 31.776C62.109 32.392 60.753 32.88 59.277 33.264C56.297 34.04 52.375 34.5 48.375 34.5C44.375 34.5 40.453 34.04 37.473 33.264C35.997 32.88 34.641 32.392 33.607 31.774C33.4193 31.664 33.2377 31.5438 33.063 31.414M66.383 33.438C66.3803 33.438 66.3783 33.4447 66.377 33.458L66.381 33.442L66.383 33.438ZM30.371 33.45L30.369 33.438L30.373 33.458L30.371 33.45ZM30.371 33.546V33.536V33.542L30.369 33.554L30.371 33.546ZM60.363 41.046C56.915 41.968 52.795 42.5 48.375 42.5C43.955 42.5 39.835 41.966 36.387 41.048C36.5251 44.1346 37.8485 47.049 40.0816 49.1844C42.3146 51.3197 45.2853 52.5115 48.375 52.5115C51.4647 52.5115 54.4354 51.3197 56.6684 49.1844C58.9015 47.049 60.2249 44.1326 60.363 41.046ZM69.745 53.688C69.8571 53.3355 69.8691 52.9588 69.7799 52.5998C69.6907 52.2408 69.5037 51.9136 69.2397 51.6546C68.9756 51.3955 68.6449 51.2148 68.2843 51.1324C67.9237 51.05 67.5473 51.0693 67.197 51.188C64.8787 51.9762 62.8301 53.4029 61.2868 55.304C59.7435 57.2051 58.7684 59.5032 58.4735 61.9341C58.1787 64.3649 58.5762 66.8295 59.6202 69.0444C60.6642 71.2593 62.3124 73.1344 64.375 74.454V82.5C64.375 83.0304 64.5857 83.5391 64.9608 83.9142C65.3359 84.2893 65.8446 84.5 66.375 84.5H76.375C76.9054 84.5 77.4141 84.2893 77.7892 83.9142C78.1643 83.5391 78.375 83.0304 78.375 82.5V74.456C80.4388 73.1368 82.088 71.2615 83.1328 69.0461C84.1776 66.8307 84.5755 64.3653 84.2806 61.9337C83.9857 59.5021 83.0101 57.2033 81.466 55.3018C79.922 53.4004 77.8723 51.9737 75.553 51.186C75.2025 51.0671 74.8258 51.0477 74.4649 51.1301C74.1041 51.2126 73.7732 51.3935 73.509 51.6529C73.2449 51.9122 73.058 52.2398 72.969 52.5991C72.88 52.9584 72.8925 53.3354 73.005 53.688L73.049 53.852L74.163 59.052C74.2511 59.4672 74.2453 59.8969 74.146 60.3095C74.0468 60.7222 73.8566 61.1075 73.5894 61.4373C73.3223 61.7671 72.9848 62.0331 72.6017 62.2157C72.2185 62.3984 71.7994 62.4932 71.375 62.4932C70.9506 62.4932 70.5315 62.3984 70.1483 62.2157C69.7652 62.0331 69.4277 61.7671 69.1606 61.4373C68.8934 61.1075 68.7032 60.7222 68.604 60.3095C68.5047 59.8969 68.4989 59.4672 68.587 59.052L69.701 53.852L69.745 53.688ZM78.073 58.214L77.873 57.27C78.8454 58.2836 79.567 59.5108 79.9801 60.8532C80.3932 62.1957 80.4864 63.6162 80.2522 65.0012C80.018 66.3861 79.4628 67.697 78.6312 68.8289C77.7996 69.9609 76.7146 70.8825 75.463 71.52C75.1226 71.6935 74.8391 71.9609 74.6459 72.2906C74.4528 72.6202 74.3581 72.9982 74.373 73.38L74.375 73.5V80.5H68.375V73.484L68.377 73.38C68.3921 72.9984 68.2977 72.6205 68.1049 72.2909C67.9121 71.9613 67.629 71.6938 67.289 71.52C66.0374 70.8825 64.9524 69.9609 64.1208 68.8289C63.2892 67.697 62.734 66.3861 62.4998 65.0012C62.2656 63.6162 62.3588 62.1957 62.7719 60.8532C63.185 59.5108 63.9066 58.2836 64.879 57.27L64.677 58.214C64.463 59.2127 64.4751 60.2466 64.7123 61.24C64.9496 62.2335 65.4059 63.1613 66.0481 63.9556C66.6902 64.7498 67.5018 65.3905 68.4235 65.8305C69.3452 66.2706 70.3536 66.499 71.375 66.499C72.3964 66.499 73.4048 66.2706 74.3265 65.8305C75.2482 65.3905 76.0598 64.7498 76.7019 63.9556C77.3441 63.1613 77.8004 62.2335 78.0377 61.24C78.2749 60.2466 78.287 59.2127 78.073 58.214ZM37.081 57.716L46.375 64.944V72.294C46.785 72.398 47.425 72.5 48.375 72.5C49.325 72.5 49.965 72.4 50.375 72.294V64.5L54.375 61.5V84.5H12.375V72.5C12.375 65.178 25.415 59.954 37.081 57.716ZM29.325 73.036L42.375 70.862V80.5H26.375V64.86C28.566 64.0205 30.803 63.306 33.075 62.72L29.325 73.036ZM16.375 80.5H22.375V66.658L22.227 66.736C20.099 67.864 18.543 69.014 17.563 70.096C16.603 71.16 16.375 71.946 16.375 72.5V80.5ZM48.375 76.5C47.6203 76.4973 46.9537 76.4527 46.375 76.366V80.5H50.375V76.366C49.7963 76.4527 49.1297 76.4973 48.375 76.5ZM42.275 66.822L37.259 62.922L35.425 67.964L42.275 66.822Z" fill="white"/>
</svg>
