<svg width="56" height="56" viewBox="0 0 56 56" fill="none" xmlns="http://www.w3.org/2000/svg">
<path d="M25.6833 49H22.412C14.047 49 9.86566 49 7.26633 46.3517C4.66699 43.7034 4.66699 39.4404 4.66699 30.9167C4.66699 22.393 4.66699 18.13 7.26633 15.4817C9.86566 12.8334 14.047 12.8334 22.412 12.8334H31.2857C39.6507 12.8334 43.8343 12.8334 46.4337 15.4817C48.4333 17.5187 48.893 20.5124 49.0003 25.6667" stroke="#FB8500" stroke-width="3.5" stroke-linecap="round" stroke-linejoin="round"/>
<path d="M37.334 12.8334L37.1006 12.11C35.9456 8.51669 35.3693 6.72002 33.995 5.69335C32.6183 4.66669 30.7937 4.66669 27.1373 4.66669H26.5236C22.872 4.66669 21.045 4.66669 19.6707 5.69335C18.294 6.72002 17.7177 8.51669 16.5627 12.11L16.334 12.8334M39.9263 30.9284C40.358 30.5317 40.5727 30.3334 40.834 30.3334C41.0953 30.3334 41.31 30.5317 41.7417 30.9284L43.4053 32.4614C43.606 32.6457 43.7063 32.739 43.83 32.7834C43.956 32.83 44.0913 32.8254 44.3666 32.8137L46.6113 32.725C47.19 32.7017 47.4793 32.6924 47.6777 32.858C47.876 33.0237 47.9157 33.3107 47.9927 33.8847L48.3007 36.1854C48.338 36.4514 48.3543 36.582 48.4196 36.6987C48.485 36.8107 48.59 36.8924 48.8 37.058L50.6107 38.4814C51.0587 38.836 51.2826 39.011 51.327 39.263C51.3713 39.515 51.2196 39.7577 50.921 40.243L49.6937 42.2194C49.5537 42.4457 49.4837 42.56 49.4603 42.686C49.437 42.812 49.465 42.945 49.521 43.2064L50.0086 45.4884C50.1253 46.0484 50.186 46.3284 50.0576 46.5524C49.9293 46.7764 49.6563 46.865 49.1127 47.0424L46.952 47.7447C46.6953 47.8287 46.5647 47.8707 46.4643 47.9547C46.364 48.041 46.301 48.1624 46.1773 48.4027L45.1226 50.435C44.8543 50.9554 44.719 51.2144 44.474 51.303C44.229 51.3917 43.9606 51.2797 43.4193 51.0557L41.3473 50.197C41.093 50.092 40.967 50.0384 40.834 50.0384C40.701 50.0384 40.575 50.092 40.3207 50.197L38.2487 51.0557C37.7073 51.2797 37.439 51.3917 37.194 51.303C36.949 51.2144 36.8136 50.953 36.5453 50.435L35.4907 48.4027C35.3647 48.1624 35.304 48.041 35.2037 47.957C35.1033 47.873 34.9727 47.8287 34.716 47.747L32.5553 47.0424C32.0116 46.865 31.7387 46.7764 31.6103 46.5524C31.482 46.3284 31.5403 46.0507 31.6593 45.4884L32.1493 43.2064C32.203 42.945 32.231 42.8144 32.2077 42.6884C32.1598 42.5196 32.0807 42.3612 31.9743 42.2217L30.7493 40.243C30.446 39.7577 30.2967 39.515 30.341 39.263C30.3853 39.011 30.6093 38.836 31.0573 38.4837L32.868 37.0604C33.078 36.8924 33.183 36.8107 33.2483 36.6964C33.3136 36.582 33.33 36.4514 33.365 36.183L33.6753 33.8847C33.7523 33.313 33.792 33.0237 33.9903 32.858C34.1887 32.6924 34.478 32.7017 35.0567 32.725L37.3037 32.8137C37.5767 32.8254 37.712 32.83 37.838 32.7834C37.9616 32.7367 38.062 32.6457 38.2627 32.4614L39.9263 30.9284Z" stroke="#FB8500" stroke-width="3.5" stroke-linecap="round" stroke-linejoin="round"/>
</svg>
