<svg width="56" height="56" viewBox="0 0 56 56" fill="none" xmlns="http://www.w3.org/2000/svg">
<path d="M15.167 21H12.8337M24.5003 21H22.167M15.167 14H12.8337M24.5003 14H22.167M43.167 35H40.8337M43.167 25.6667H40.8337M32.667 18.6667V51.3334H42.0003C46.401 51.3334 48.599 51.3334 49.9663 49.966C51.3337 48.5987 51.3337 46.4007 51.3337 42V28C51.3337 23.5994 51.3337 21.4014 49.9663 20.034C48.599 18.6667 46.401 18.6667 42.0003 18.6667H32.667ZM32.667 18.6667C32.667 12.068 32.667 8.76635 30.616 6.71769C28.5673 4.66669 25.2657 4.66669 18.667 4.66669C12.0683 4.66669 8.76666 4.66669 6.71799 6.71769C4.66699 8.76635 4.66699 12.068 4.66699 18.6667V23.3334M18.7253 32.5617C18.7389 33.1832 18.6282 33.8011 18.3997 34.3792C18.1712 34.9573 17.8295 35.4839 17.3947 35.9281C16.9598 36.3723 16.4406 36.7252 15.8675 36.966C15.2945 37.2068 14.6791 37.3306 14.0574 37.3303C13.4358 37.33 12.8205 37.2055 12.2477 36.9642C11.6749 36.7228 11.156 36.3694 10.7216 35.9247C10.2872 35.4801 9.94607 34.9531 9.71814 34.3748C9.49021 33.7965 9.38012 33.1785 9.39433 32.557C9.4222 31.3377 9.92629 30.1778 10.7987 29.3255C11.6711 28.4733 12.8425 27.9964 14.0621 27.997C15.2817 27.9976 16.4526 28.4757 17.3242 29.3288C18.1957 30.1819 18.6987 31.3424 18.7253 32.5617ZM4.83033 47.1567C7.29899 43.358 11.2213 41.9347 14.0587 41.937C16.896 41.9394 20.7017 43.358 23.1727 47.1567C23.3313 47.4017 23.3757 47.705 23.231 47.9594C22.6547 48.9837 20.8603 51.016 19.5677 51.1514C18.0767 51.31 14.1847 51.3334 14.061 51.3334C13.9373 51.3334 9.92399 51.31 8.43766 51.1514C7.14033 51.0137 5.34833 48.9837 4.76966 47.9594C4.70474 47.833 4.67605 47.6911 4.68675 47.5495C4.69746 47.4078 4.74715 47.2719 4.83033 47.1567Z" stroke="#FB8500" stroke-width="3.5" stroke-linecap="round" stroke-linejoin="round"/>
</svg>
