<svg width="32" height="32" viewBox="0 0 32 32" fill="none" xmlns="http://www.w3.org/2000/svg">
<circle cx="16" cy="16" r="16" fill="#219EBC"/>
<rect width="18" height="18" transform="translate(7 7)" fill="#219EBC"/>
<path d="M19 13.75C19 17.7475 13 17.7475 13 13.75H14.5C14.5 15.7525 17.5 15.7525 17.5 13.75M22 20.5V22.75H10V20.5C10 18.4975 13.9975 17.5 16 17.5C18.0025 17.5 22 18.4975 22 20.5ZM20.575 20.5C20.575 20.02 18.2275 18.925 16 18.925C13.7725 18.925 11.425 20.02 11.425 20.5V21.325H20.575M16.375 8.5C16.585 8.5 16.75 8.665 16.75 8.875V11.125H17.5V9.25C18.0308 9.49564 18.4755 9.89514 18.7764 10.3967C19.0773 10.8982 19.2205 11.4786 19.1875 12.0625C19.1875 12.0625 19.7125 12.1675 19.75 13H12.25C12.25 12.1675 12.8125 12.0625 12.8125 12.0625C12.7795 11.4786 12.9227 10.8982 13.2236 10.3967C13.5245 9.89514 13.9692 9.49564 14.5 9.25V11.125H15.25V8.875C15.25 8.665 15.415 8.5 15.625 8.5" fill="white"/>
</svg>
