<svg width="97" height="97" viewBox="0 0 97 97" fill="none" xmlns="http://www.w3.org/2000/svg">
<path d="M84.875 36.5H68.875L56.875 24.5L68.875 12.5H84.875M10.875 70.5C10.875 69.4391 11.2964 68.4217 12.0466 67.6716C12.7967 66.9214 13.8141 66.5 14.875 66.5H82.875C83.9359 66.5 84.9533 66.9214 85.7034 67.6716C86.4536 68.4217 86.875 69.4391 86.875 70.5V84.5H10.875V70.5Z" stroke="white" stroke-width="6" stroke-linecap="round" stroke-linejoin="round"/>
<path d="M16.875 32.5C21.2933 32.5 24.875 28.9183 24.875 24.5C24.875 20.0817 21.2933 16.5 16.875 16.5C12.4567 16.5 8.875 20.0817 8.875 24.5C8.875 28.9183 12.4567 32.5 16.875 32.5Z" stroke="white" stroke-width="6"/>
<path d="M24.875 24.5H56.875M20.875 32.5L36.875 66.5" stroke="white" stroke-width="6" stroke-linecap="round" stroke-linejoin="round"/>
</svg>
