<svg width="28" height="28" viewBox="0 0 28 28" fill="none" xmlns="http://www.w3.org/2000/svg">
<rect width="28" height="28" rx="8" fill="#FB8500"/>
<path d="M20.4845 10.9025C21.2513 12.5064 21.3969 14.3375 20.8931 16.0424C20.3893 17.7473 19.2718 19.2051 17.7564 20.1346C16.2409 21.064 14.4349 21.3991 12.6868 21.0753C10.9388 20.7514 9.37267 19.7915 8.29074 18.3809C7.2088 16.9703 6.68775 15.2088 6.82813 13.4366C6.96852 11.6644 7.7604 10.007 9.05093 8.78426C10.3415 7.56155 12.0392 6.86022 13.8164 6.81562C15.5936 6.77102 17.3244 7.38632 18.6746 8.54276L20.2406 6.97605C20.3443 6.87236 20.485 6.8141 20.6316 6.8141C20.7783 6.8141 20.9189 6.87236 21.0226 6.97605C21.1263 7.07975 21.1845 7.22039 21.1845 7.36704C21.1845 7.51369 21.1263 7.65433 21.0226 7.75802L16.7356 12.0458L14.1306 14.6507L12.4761 16.3052C12.9039 16.5881 13.4019 16.7464 13.9145 16.7623C14.427 16.7783 14.9339 16.6513 15.3784 16.3956C15.8229 16.1398 16.1875 15.7655 16.4313 15.3143C16.6751 14.8632 16.7886 14.3531 16.759 13.8411C16.7508 13.6945 16.8011 13.5507 16.8989 13.4412C16.9967 13.3318 17.134 13.2656 17.2806 13.2574C17.4272 13.2492 17.571 13.2995 17.6805 13.3973C17.7899 13.4951 17.8561 13.6324 17.8643 13.7789C17.9089 14.5615 17.7147 15.3391 17.3075 16.0088C16.9002 16.6785 16.2992 17.2087 15.5839 17.5292C14.8686 17.8497 14.0729 17.9453 13.302 17.8035C12.5312 17.6616 11.8216 17.289 11.2673 16.7348C10.5778 16.0428 10.1757 15.1156 10.1417 14.1394C10.1076 13.1632 10.4442 12.2102 11.0837 11.4719C11.7232 10.7335 12.6184 10.2644 13.5895 10.1588C14.5606 10.0532 15.5357 10.3189 16.319 10.9025L17.8892 9.32957C16.7375 8.37338 15.2731 7.8764 13.7774 7.93409C12.2816 7.99178 10.8598 8.60007 9.78524 9.64213C8.71062 10.6842 8.0589 12.0865 7.95524 13.5798C7.85157 15.0731 8.30328 16.5521 9.22361 17.7326C10.1439 18.9132 11.468 19.7121 12.9414 19.9759C14.4149 20.2397 15.9339 19.9498 17.2066 19.1619C18.4794 18.374 19.4162 17.1437 19.8371 15.7072C20.258 14.2707 20.1333 12.7293 19.487 11.3791C19.4238 11.2469 19.4157 11.0949 19.4645 10.9567C19.5134 10.8184 19.6151 10.7053 19.7474 10.6421C19.8797 10.5789 20.0316 10.5708 20.1699 10.6196C20.3081 10.6685 20.4213 10.7702 20.4845 10.9025Z" fill="white"/>
</svg>
