<svg width="97" height="97" viewBox="0 0 97 97" fill="none" xmlns="http://www.w3.org/2000/svg">
<path d="M69.625 12.484C71.0695 12.484 72.4999 12.7685 73.8345 13.3213C75.1691 13.8741 76.3817 14.6844 77.4032 15.7058C78.4246 16.7273 79.2349 17.9399 79.7877 19.2745C80.3405 20.6091 80.625 22.0395 80.625 23.484V46.492C78.6999 45.6908 76.6855 45.124 74.625 44.804V23.484C74.625 20.724 72.385 18.484 69.625 18.484H19.625C16.865 18.484 14.625 20.724 14.625 23.484V73.484C14.625 76.244 16.865 78.484 19.625 78.484H45.873C46.561 80.62 47.517 82.632 48.701 84.484H19.625C18.1805 84.484 16.7501 84.1995 15.4155 83.6467C14.0809 83.0939 12.8683 82.2836 11.8468 81.2622C10.8254 80.2407 10.0151 79.0281 9.46233 77.6935C8.90952 76.3589 8.625 74.9286 8.625 73.484V23.484C8.625 20.5666 9.78393 17.7687 11.8468 15.7058C13.9097 13.6429 16.7076 12.484 19.625 12.484H69.625ZM64.625 31.42V45.2C62.5407 45.694 60.5254 46.4437 58.625 47.432V31.42C58.6302 31.0313 58.712 30.6474 58.8656 30.2903C59.0191 29.9331 59.2416 29.6098 59.5202 29.3386C59.7988 29.0675 60.128 28.8538 60.4892 28.7099C60.8503 28.5661 61.2363 28.4947 61.625 28.5C63.145 28.5 64.401 29.6 64.597 31.02L64.625 31.42ZM47.485 51.364L47.553 58.504C45.9407 61.6064 44.9707 65.0021 44.701 68.488C43.9998 68.4922 43.3206 68.2439 42.7874 67.7885C42.2542 67.3332 41.9026 66.7012 41.797 66.008L41.765 65.612L41.625 51.424C41.6207 50.6503 41.9238 49.9065 42.4675 49.356C43.0112 48.8055 43.7513 48.4933 44.525 48.488C45.2303 48.478 45.9153 48.7237 46.4535 49.1796C46.9918 49.6354 47.3468 50.2707 47.453 50.968L47.485 51.364ZM27.625 36.5C29.145 36.5 30.397 37.624 30.597 39.084L30.625 39.488V65.516C30.6208 66.3089 30.3028 67.0678 29.7407 67.627C29.1785 68.1861 28.4179 68.5 27.625 68.5C26.9018 68.5004 26.2029 68.2395 25.6568 67.7655C25.1107 67.2914 24.7542 66.636 24.653 65.92L24.625 65.512V39.484C24.625 37.836 25.969 36.5 27.625 36.5ZM57.737 56.408C58.0355 57.4422 58.1222 58.5259 57.9919 59.5944C57.8617 60.6629 57.5172 61.6941 56.979 62.6262C56.4408 63.5584 55.7201 64.3724 54.8599 65.0195C53.9997 65.6665 53.0178 66.1334 51.973 66.392L49.637 66.968C49.2602 69.3646 49.2683 71.806 49.661 74.2L51.821 74.72C52.8753 74.974 53.867 75.4396 54.7358 76.0887C55.6046 76.7378 56.3323 77.5567 56.8748 78.4958C57.4172 79.4348 57.7631 80.4744 57.8914 81.5512C58.0197 82.6281 57.9277 83.7198 57.621 84.76L56.873 87.284C58.633 88.828 60.633 90.08 62.809 90.972L64.785 88.896C65.5323 88.1099 66.4317 87.484 67.4284 87.0563C68.4251 86.6287 69.4984 86.4081 70.583 86.4081C71.6676 86.4081 72.7409 86.6287 73.7376 87.0563C74.7343 87.484 75.6337 88.1099 76.381 88.896L78.373 90.996C80.5382 90.1141 82.5426 88.8801 84.305 87.344L83.513 84.6C83.2145 83.5658 83.1278 82.4821 83.2581 81.4136C83.3883 80.3451 83.7328 79.3139 84.271 78.3818C84.8092 77.4496 85.5299 76.6356 86.3901 75.9885C87.2503 75.3415 88.2322 74.8746 89.277 74.616L91.613 74.04C91.9898 71.6434 91.9817 69.202 91.589 66.808L89.429 66.288C88.3747 66.034 87.383 65.5684 86.5142 64.9193C85.6454 64.2702 84.9177 63.4513 84.3752 62.5122C83.8328 61.5732 83.4869 60.5336 83.3586 59.4568C83.2303 58.3799 83.3223 57.2882 83.629 56.248L84.377 53.728C82.616 52.1788 80.6101 50.9325 78.441 50.04L76.469 52.112C75.7216 52.8987 74.822 53.5251 73.825 53.9532C72.8279 54.3813 71.7541 54.602 70.669 54.602C69.5839 54.602 68.5101 54.3813 67.513 53.9532C66.5159 53.5251 65.6164 52.8987 64.869 52.112L62.877 50.012C60.7121 50.8927 58.7077 52.1253 56.945 53.66L57.737 56.408ZM70.625 76.5C67.425 76.5 64.825 73.812 64.825 70.5C64.825 67.188 67.425 64.5 70.625 64.5C73.825 64.5 76.425 67.188 76.425 70.5C76.425 73.812 73.825 76.5 70.625 76.5Z" fill="#FB8500"/>
</svg>
